<svg id="组_3" data-name="组 3" xmlns="http://www.w3.org/2000/svg" xmlns:xlink="http://www.w3.org/1999/xlink" width="61.469" height="78.156" viewBox="0 0 61.469 78.156">
  <defs>
    <style>
      .cls-1 {
        fill: #a1eed2;
        filter: url(#filter);
      }

      .cls-1, .cls-2 {
        fill-rule: evenodd;
      }

      .cls-2 {
        fill: #fff;
        opacity: 0.15;
      }
    </style>
    <filter id="filter" x="9.813" y="1.031" width="61.469" height="78.156" filterUnits="userSpaceOnUse">
      <feGaussianBlur result="blur" stdDeviation="6" in="SourceAlpha"/>
      <feFlood result="flood" flood-color="#fff" flood-opacity="0.11"/>
      <feComposite result="composite-2" operator="out" in2="blur"/>
      <feComposite result="composite" operator="in" in2="SourceAlpha"/>
      <feBlend result="blend" mode="screen" in2="SourceGraphic"/>
    </filter>
  </defs>
  <path id="椭圆_8" data-name="椭圆 8" class="cls-1" d="M40.546,1.019c16.978,0,30.742,16.8,30.742,37.515,0,17.853-10.219,32.793-23.908,36.585-2.2.609,7.629,4.173-6.313,4.057-14.268-.119-5.158-3.448-7.357-4.057C20.022,71.326,9.8,56.387,9.8,38.534,9.8,17.815,23.568,1.019,40.546,1.019Z" transform="translate(-9.813 -1.031)"/>
  <path id="椭圆_7" data-name="椭圆 7" class="cls-2" d="M21.1,24.521c5.6,1.066,2.078,3.4,1.111,9.035-0.652,3.8.049,7.09-2.592,6.776s-4.262-1.862-3.61-7.541S18.488,24.024,21.1,24.521Z" transform="translate(-9.813 -1.031)"/>
  <path id="椭圆_7_拷贝" data-name="椭圆 7 拷贝" class="cls-2" d="M19.217,46.536C21.85,45.248,23.18,49.944,25.7,55.1s5.283,8.828,2.65,10.116-6.812-1.852-9.335-7.011S16.584,47.823,19.217,46.536Z" transform="translate(-9.813 -1.031)"/>
</svg>
