<?xml version="1.0" encoding="utf-8"?>
<svg version="1.1" xmlns:xlink="http://www.w3.org/1999/xlink" width="208px" height="182px" xmlns="http://www.w3.org/2000/svg">
  <defs>
    <filter x="228px" y="16px" width="208px" height="182px" filterUnits="userSpaceOnUse" id="filter27">
      <feOffset dx="10" dy="-7" in="SourceAlpha" result="shadowOffsetInner" />
      <feGaussianBlur stdDeviation="2.5" in="shadowOffsetInner" result="shadowGaussian" />
      <feComposite in2="shadowGaussian" operator="atop" in="SourceAlpha" result="shadowComposite" />
      <feColorMatrix type="matrix" values="0 0 0 0 0  0 0 0 0 0  0 0 0 0 0  0 0 0 0.349019607843137 0  " in="shadowComposite" />
    </filter>
    <g id="widget28">
      <path d="M 228.5 135  C 228.5 135  228.5 71  228.5 71  C 228.5 47.5278981321913  247.527898132191 28.5  271 28.5  C 271 28.5  378 28.5  378 28.5  C 401.472101867809 28.5  420.5 47.5278981321913  420.5 71  C 420.5 71  420.5 135  420.5 135  C 420.5 158.472101867809  401.472101867809 177.5  378 177.5  C 378 177.5  279.507649672292 177.5  279.507649672292 177.5  C 279.507649672292 177.5  269.816666666667 196.88196601125  269.816666666667 196.88196601125  C 269.816666666667 196.88196601125  259.305350674717 175.859334027351  259.305350674717 175.859334027351  C 241.069503801965 170.639918699054  228.5 153.96808919042  228.5 135  Z " fill-rule="nonzero" fill="#ffffff" stroke="none" />
      <path d="M 228 135  C 228 135  228 71  228 71  C 228 47.2517557572759  247.251755757276 28  271 28  C 271 28  378 28  378 28  C 401.748244242724 28  421 47.2517557572759  421 71  C 421 71  421 135  421 135  C 421 158.748244242724  401.748244242724 178  378 178  C 378 178  279.816666666667 178  279.816666666667 178  C 279.816666666667 178  269.816666666667 198  269.816666666667 198  C 269.816666666667 198  258.956097443803 176.278861554273  258.956097443803 176.278861554273  C 240.61138211288 170.926437685308  228 154.109605486395  228 135  Z M 229 135  C 229 153.826256757673  241.527623419737 170.352608987414  259.65391385176 175.438426392686  C 259.65391385176 175.438426392686  269.816666666667 195.7639320225  269.816666666667 195.7639320225  C 269.816666666667 195.7639320225  279.198632677917 177  279.198632677917 177  C 279.198632677917 177  378 177  378 177  C 401.195959492893 177  420 158.195959492893  420 135  C 420 135  420 71  420 71  C 420 47.8040405071067  401.195959492893 29  378 29  C 378 29  271 29  271 29  C 247.804040507107 29  229 47.8040405071067  229 71  C 229 71  229 135  229 135  Z " fill-rule="nonzero" fill="#797979" stroke="none" />
    </g>
  </defs>
  <g transform="matrix(1 0 0 1 -228 -16 )">
    <use xlink:href="#widget28" filter="url(#filter27)" />
    <use xlink:href="#widget28" />
  </g>
</svg>