<?xml version="1.0" encoding="utf-8"?>
<svg version="1.1" xmlns:xlink="http://www.w3.org/1999/xlink" width="23px" height="23px" viewBox="178 448  23 23" xmlns="http://www.w3.org/2000/svg">
  <path d="M 189.5 448  C 195.94 448  201 453.06  201 459.5  C 201 465.94  195.94 471  189.5 471  C 183.06 471  178 465.94  178 459.5  C 178 453.06  183.06 448  189.5 448  Z " fill-rule="nonzero" fill="#f9f4dc" stroke="none" />
  <path d="M 189.5 448.5  C 195.66 448.5  200.5 453.34  200.5 459.5  C 200.5 465.66  195.66 470.5  189.5 470.5  C 183.34 470.5  178.5 465.66  178.5 459.5  C 178.5 453.34  183.34 448.5  189.5 448.5  Z " stroke-width="1" stroke="#797979" fill="none" />
  <path d="M 189.5 465.25  C 186.28 465.25  183.75 462.72  183.75 459.5  C 183.75 456.28  186.28 453.75  189.5 453.75  C 192.72 453.75  195.25 456.28  195.25 459.5  C 195.25 462.72  192.72 465.25  189.5 465.25  " fill-rule="nonzero" fill="#797979" stroke="none" />
</svg>