<?xml version="1.0" encoding="utf-8"?>
<svg version="1.1" xmlns:xlink="http://www.w3.org/1999/xlink" width="74px" height="38px" xmlns="http://www.w3.org/2000/svg">
  <g transform="matrix(1 0 0 1 -186 -65 )">
    <path d="M 201.218017643381 65.5  C 201.218017643381 65.5  197.703326887082 66.4024205995904  197.703326887082 66.4024205995904  C 197.703326887082 66.4024205995904  186.573233932977 84  186.573233932977 84  C 186.573233932977 84  197.703326887082 101.59757940041  197.703326887082 101.59757940041  C 197.703326887082 101.59757940041  201.218017643381 102.5  201.218017643381 102.5  C 201.218017643381 102.5  245 102.5  245 102.5  C 253.12 102.5  259.5 96.12  259.5 88  C 259.5 88  259.5 80  259.5 80  C 259.5 71.88  253.12 65.5  245 65.5  C 245 65.5  201.218017643381 65.5  201.218017643381 65.5  Z " fill-rule="nonzero" fill="#ecc6be" stroke="none" />
    <path d="M 201.218017643381 65.5  C 201.218017643381 65.5  197.703326887082 66.4024205995904  197.703326887082 66.4024205995904  C 197.703326887082 66.4024205995904  186.573233932977 84  186.573233932977 84  C 186.573233932977 84  197.703326887082 101.59757940041  197.703326887082 101.59757940041  C 197.703326887082 101.59757940041  201.218017643381 102.5  201.218017643381 102.5  C 201.218017643381 102.5  245 102.5  245 102.5  C 253.12 102.5  259.5 96.12  259.5 88  C 259.5 88  259.5 80  259.5 80  C 259.5 71.88  253.12 65.5  245 65.5  C 245 65.5  201.218017643381 65.5  201.218017643381 65.5  Z " stroke-width="1" stroke="#797979" fill="none" />
  </g>
</svg>