<?xml version="1.0" encoding="utf-8"?>
<svg version="1.1" xmlns:xlink="http://www.w3.org/1999/xlink" width="86px" height="200px" xmlns="http://www.w3.org/2000/svg">
  <g transform="matrix(1 0 0 1 -57 56 )">
    <path d="M 57.5 73.4252873563218  C 57.5 73.4252873563218  57.5 -36  57.5 -36  C 57.5 -46.7695526217005  66.2304473782995 -55.5  77 -55.5  C 77 -55.5  123 -55.5  123 -55.5  C 133.7695526217 -55.5  142.5 -46.7695526217005  142.5 -36  C 142.5 -36  142.5 73.4252873563219  142.5 73.4252873563219  C 142.5 84.1948399780223  133.7695526217 92.9252873563219  123 92.9252873563218  C 123 92.9252873563218  85.2178517362033 92.9252873563219  85.2178517362033 92.9252873563219  C 85.2178517362033 92.9252873563219  76.4544777417441 139.982070892058  76.4544777417441 139.982070892058  C 76.4544777417441 139.982070892058  65.1451759682183 88.9079598380186  65.1451759682183 88.9079598380186  C 60.3261378660095 85.2181027560663  57.5 79.4947332549005  57.5 73.4252873563218  Z " fill-rule="nonzero" fill="#ffffff" stroke="none" />
    <path d="M 57 73.4252873563219  C 57 73.4252873563219  57 -36  57 -36  C 57 -47.0456949966159  65.9543050033841 -56  77 -56  C 77 -56  123 -56  123 -56  C 134.045694996616 -56  143 -47.0456949966159  143 -36  C 143 -36  143 73.4252873563219  143 73.4252873563219  C 143 84.4709823529377  134.045694996616 93.4252873563219  123 93.4252873563219  C 123 93.4252873563219  85.6333333333333 93.4252873563218  85.6333333333333 93.4252873563218  C 85.6333333333333 93.4252873563218  76.4967871485944 142.485897613439  76.4967871485944 142.485897613439  C 76.4967871485944 142.485897613439  64.6961410774038 89.192819046883  64.6961410774038 89.192819046883  C 59.8392214954459 85.4028248672247  57 79.5859467128722  57 73.4252873563219  Z M 58 73.4252873563219  C 58 79.4028772185723  60.8130679759024 85.0319583781318  65.5936380647021 88.6205138239  C 65.5936380647021 88.6205138239  76.4121683348938 137.478244170678  76.4121683348938 137.478244170678  C 76.4121683348938 137.478244170678  84.8023701390734 92.4252873563219  84.8023701390734 92.4252873563219  C 84.8023701390734 92.4252873563219  123 92.4252873563219  123 92.4252873563219  C 133.493410246785 92.4252873563219  142 83.9186976031069  142 73.4252873563219  C 142 73.4252873563219  142 -36  142 -36  C 142 -46.4934102467851  133.493410246785 -55  123 -55  C 123 -55  77 -55  77 -55  C 66.5065897532149 -55  58 -46.4934102467851  58 -36  C 58 -36  58 73.4252873563219  58 73.4252873563219  Z " fill-rule="nonzero" fill="#797979" stroke="none" />
  </g>
</svg>