<?xml version="1.0" encoding="utf-8"?>
<svg version="1.1" xmlns:xlink="http://www.w3.org/1999/xlink" width="19px" height="19px" viewBox="596 610  19 19" xmlns="http://www.w3.org/2000/svg">
  <path d="M 596.5 615  A 4.5 4.5 0 0 1 601 610.5 L 610 610.5  A 4.5 4.5 0 0 1 614.5 615 L 614.5 624  A 4.5 4.5 0 0 1 610 628.5 L 601 628.5  A 4.5 4.5 0 0 1 596.5 624 L 596.5 615  Z " fill-rule="nonzero" fill="#ffffff" stroke="none" />
  <path d="M 596.5 615  A 4.5 4.5 0 0 1 601 610.5 L 610 610.5  A 4.5 4.5 0 0 1 614.5 615 L 614.5 624  A 4.5 4.5 0 0 1 610 628.5 L 601 628.5  A 4.5 4.5 0 0 1 596.5 624 L 596.5 615  Z " stroke-width="1" stroke="#797979" fill="none" />
</svg>