<?xml version="1.0" encoding="utf-8"?>
<svg version="1.1" xmlns:xlink="http://www.w3.org/1999/xlink" width="19px" height="19px" viewBox="524 610  19 19" xmlns="http://www.w3.org/2000/svg">
  <path d="M 524.5 615  A 4.5 4.5 0 0 1 529 610.5 L 538 610.5  A 4.5 4.5 0 0 1 542.5 615 L 542.5 624  A 4.5 4.5 0 0 1 538 628.5 L 529 628.5  A 4.5 4.5 0 0 1 524.5 624 L 524.5 615  Z " fill-rule="nonzero" fill="#ffffff" stroke="none" />
  <path d="M 524.5 615  A 4.5 4.5 0 0 1 529 610.5 L 538 610.5  A 4.5 4.5 0 0 1 542.5 615 L 542.5 624  A 4.5 4.5 0 0 1 538 628.5 L 529 628.5  A 4.5 4.5 0 0 1 524.5 624 L 524.5 615  Z " stroke-width="1" stroke="#797979" fill="none" />
  <path d="M 528.071428571429 619.5  L 532.142857142857 623.571428571429  L 538.928571428571 614.071428571429  " stroke-width="4.07142857142857" stroke="#797979" fill="none" />
</svg>